<svg width="17" height="13" viewBox="0 0 17 13" fill="none" xmlns="http://www.w3.org/2000/svg">
<path d="M16.008 4.776C15.9026 4.63262 15.7649 4.51596 15.6062 4.43538C15.4475 4.3548 15.2721 4.31254 15.094 4.312H14.188V3.188C14.188 2.88964 14.0695 2.60349 13.8585 2.39251C13.6476 2.18153 13.3614 2.063 13.063 2.063H8.18805L6.23305 0.600002C6.0396 0.453073 5.80296 0.374311 5.56005 0.376003H1.81205C1.51403 0.376268 1.22828 0.494776 1.01755 0.705509C0.806817 0.916243 0.688312 1.20198 0.688047 1.5V11.625C0.686969 11.6992 0.700794 11.7729 0.728706 11.8417C0.756617 11.9105 0.798048 11.973 0.850543 12.0255C0.903039 12.078 0.965535 12.1194 1.03433 12.1473C1.10312 12.1753 1.17681 12.1891 1.25105 12.188H13.625C13.7434 12.1878 13.8588 12.1504 13.9546 12.0809C14.0505 12.0114 14.122 11.9135 14.159 11.801L16.159 5.801C16.2161 5.6303 16.2322 5.44854 16.206 5.27047C16.1798 5.09239 16.1119 4.92299 16.008 4.776ZM5.56005 1.5L7.51505 2.96301C7.70891 3.11071 7.94633 3.18985 8.19005 3.188H13.063V4.313H3.90805C3.67203 4.31241 3.44181 4.38606 3.24996 4.52353C3.05811 4.661 2.91436 4.85533 2.83905 5.079L1.81205 8.159V1.5H5.56005Z" fill="#9D2AF2"/>
</svg>
